<svg version="1.1" id="Layer_1" xmlns="http://www.w3.org/2000/svg" xmlns:xlink="http://www.w3.org/1999/xlink" x="0px" y="0px"
	 width="100%" viewBox="0 0 558 148" enable-background="new 0 0 558 148" xml:space="preserve">
<path fill="#FCFDFE" opacity="1.000000" stroke="none" 
	d="
M365.000000,149.000000 
	C244.833359,149.000000 125.166687,148.979599 5.500155,149.094376 
	C1.750690,149.097977 0.890841,148.251160 0.902790,144.499756 
	C1.051433,97.833565 1.035601,51.166656 0.916665,4.500303 
	C0.909063,1.517490 1.517934,0.917662 4.499948,0.919124 
	C188.166550,1.009188 371.833191,1.009179 555.499756,0.919186 
	C558.481018,0.917725 559.090942,1.516435 559.083374,4.500019 
	C558.964600,51.499714 558.964600,98.499886 559.083252,145.499573 
	C559.090759,148.481979 558.483276,149.087723 555.500122,149.082581 
	C492.166870,148.973587 428.833405,149.000000 365.000000,149.000000 
z"/>
<path fill="#131314" opacity="1.000000" stroke="none" 
	d="
M43.999985,139.824524 
	C37.002258,139.826813 30.503859,139.888443 24.006952,139.816055 
	C16.257730,139.729706 12.020242,135.470581 12.013022,127.688011 
	C11.982265,94.532127 11.985746,61.376179 12.010859,28.220282 
	C12.017077,20.010237 16.052994,16.012150 24.332077,16.007259 
	C61.819908,15.985124 99.307770,15.984178 136.795609,16.007586 
	C145.058517,16.012747 149.007996,19.988140 149.014023,28.286156 
	C149.038025,61.275444 149.037582,94.264771 149.018616,127.254059 
	C149.013733,135.766891 145.032532,139.794189 136.470093,139.805817 
	C105.813423,139.847458 75.156685,139.823608 43.999985,139.824524 
z"/>
<path fill="#131313" opacity="1.000000" stroke="none" 
	d="
M509.808197,95.997894 
	C509.816101,80.520729 509.790741,65.542786 509.866028,50.565346 
	C509.876678,48.448334 508.847809,45.190044 512.421021,45.171989 
	C515.806824,45.154877 519.957458,43.028664 522.010010,48.508030 
	C526.079285,59.370918 530.686707,70.032944 535.140015,80.749611 
	C535.470459,81.544785 535.498352,82.742455 536.675110,83.007980 
	C536.675110,71.894859 536.832520,60.823246 536.584167,49.760742 
	C536.504211,46.198612 537.062561,44.439957 541.077820,44.942184 
	C544.412781,45.359329 548.270264,43.551140 548.141235,49.912422 
	C547.753052,69.042725 548.040955,88.186226 547.962036,107.324158 
	C547.954285,109.181656 549.231628,112.239052 545.709717,112.290344 
	C542.532043,112.336624 538.645813,114.281410 536.688232,109.527794 
	C532.646729,99.713928 528.414490,89.978600 524.256531,80.212746 
	C523.486816,78.404846 522.697449,76.605324 520.961853,74.824364 
	C520.961853,77.643684 520.947266,80.463089 520.964600,83.282303 
	C521.015869,91.603004 520.840393,99.935287 521.245056,108.239105 
	C521.432739,112.090607 519.941040,112.702461 516.680969,112.548813 
	C509.903656,112.229408 509.890137,112.337402 509.825806,105.483467 
	C509.797729,102.488281 509.812012,99.492691 509.808197,95.997894 
z"/>
<path fill="#161617" opacity="1.000000" stroke="none" 
	d="
M191.144318,99.718307 
	C186.313492,88.249687 185.744019,76.727814 188.274414,65.099823 
	C190.902145,53.024521 201.031677,44.792820 212.286697,45.013130 
	C223.488617,45.232399 233.393997,54.207413 235.734192,66.564514 
	C237.525269,76.022072 237.148315,85.419266 234.387573,94.720390 
	C231.317261,105.064400 224.386276,111.396187 213.915680,112.602516 
	C203.882156,113.758492 196.398087,108.653801 191.144318,99.718307 
z"/>
<path fill="#1C1C1D" opacity="1.000000" stroke="none" 
	d="
M389.026855,79.985275 
	C394.488281,90.978416 399.827789,101.618530 405.401215,112.724808 
	C382.466339,112.724808 360.102539,112.724808 337.122955,112.724808 
	C348.431213,90.098152 359.665009,67.620468 371.225708,44.488697 
	C377.357086,56.676842 383.131012,68.154549 389.026855,79.985275 
z"/>
<path fill="#151516" opacity="1.000000" stroke="none" 
	d="
M485.291077,86.606323 
	C485.197113,94.373940 485.017426,101.692223 485.089874,109.008018 
	C485.115662,111.612923 484.178131,112.414421 481.658203,112.570389 
	C473.712219,113.062195 473.189697,113.115929 473.793732,105.163513 
	C474.947266,89.975723 472.111145,75.901848 464.405060,62.720211 
	C461.904663,58.443184 460.151093,53.733681 457.975067,49.261326 
	C456.691071,46.622337 457.192657,45.338310 460.322266,44.993954 
	C468.130096,44.134830 469.029694,44.668716 471.881927,52.142029 
	C473.831482,57.250168 475.963959,62.288841 478.051392,67.343384 
	C478.219940,67.751518 478.673706,68.041862 479.419312,68.842842 
	C482.342255,62.295208 485.119934,56.052189 487.915741,49.817295 
	C489.878326,45.440533 494.951050,43.410709 499.235992,45.183895 
	C501.808533,46.248455 500.405823,48.036457 499.860474,49.317829 
	C496.032959,58.311024 492.086365,67.254066 488.114746,76.185081 
	C486.691620,79.385262 485.270660,82.557945 485.291077,86.606323 
z"/>
<path fill="#161616" opacity="1.000000" stroke="none" 
	d="
M434.030212,101.206055 
	C437.988312,96.050606 437.608368,91.010475 433.063019,86.858498 
	C428.644196,82.822098 423.988495,79.041145 420.113770,74.439407 
	C414.849548,68.187469 414.430420,58.938587 419.114471,52.300304 
	C423.889130,45.533569 433.164459,42.806156 440.879669,45.700684 
	C446.791687,47.918705 442.381561,51.319824 441.978882,54.214119 
	C441.467529,57.889572 439.332916,57.178596 436.957306,55.943161 
	C433.852692,54.328609 430.681519,54.449337 428.236847,56.996780 
	C425.897583,59.434406 426.536896,62.624756 427.472626,65.487991 
	C428.495575,68.618065 431.122772,70.577263 433.571106,72.569412 
	C437.321564,75.621033 440.950134,78.796295 443.825012,82.712746 
	C448.510956,89.096474 449.853546,96.002602 446.302368,103.313118 
	C442.718109,110.691742 435.972687,112.707138 428.483643,112.923866 
	C426.199249,112.989975 423.847839,112.493416 421.605591,111.937958 
	C414.411499,110.155785 413.790558,108.802635 416.150787,101.940498 
	C417.223755,98.821014 418.735626,98.458595 421.197815,100.446503 
	C425.125946,103.617981 429.325775,103.852661 434.030212,101.206055 
z"/>
<path fill="#161718" opacity="1.000000" stroke="none" 
	d="
M279.914185,112.050583 
	C259.242950,114.321098 247.308548,104.286102 246.034912,83.982224 
	C245.561874,76.441391 246.010910,69.017349 249.009323,61.935997 
	C253.463959,51.415497 264.092133,44.324806 275.264435,44.490761 
	C277.417999,44.522747 280.030548,44.306107 281.022003,46.587509 
	C282.228607,49.364029 281.712494,52.494244 281.324951,55.456612 
	C281.211243,56.325882 280.154205,56.436058 279.252533,56.335403 
	C272.741455,55.608562 266.455658,55.905460 262.017792,61.640694 
	C257.135620,67.950096 256.380157,75.361359 257.049805,82.991005 
	C257.415558,87.158676 258.702362,91.113342 260.724274,94.801262 
	C263.682434,100.196922 268.215210,102.367317 274.355042,102.046082 
	C282.441559,101.622993 283.785156,104.020874 279.914185,112.050583 
z"/>
<path fill="#151616" opacity="1.000000" stroke="none" 
	d="
M301.948486,75.340515 
	C301.269226,82.944534 302.518188,89.672363 306.270050,95.882164 
	C309.829956,101.774330 315.364136,102.524071 321.482391,101.896378 
	C323.803406,101.658241 327.041260,100.246170 326.591522,104.643898 
	C326.269196,107.795677 328.105377,112.138123 321.965363,112.548111 
	C304.769196,113.696365 293.492432,104.684792 291.282715,87.030273 
	C290.224213,78.573654 290.370483,70.084366 293.903687,62.033836 
	C298.804962,50.866077 307.545807,45.229519 319.537567,44.522194 
	C325.461304,44.172794 328.971558,50.029106 326.262268,55.360668 
	C325.515350,56.830502 324.315521,56.362171 323.235687,56.219624 
	C309.070587,54.349667 303.285187,63.491226 301.948486,75.340515 
z"/>
<path fill="#C6EEF7" opacity="1.000000" stroke="none" 
	d="
M108.675568,110.831711 
	C108.811783,111.759232 108.799217,112.508797 108.775238,113.639359 
	C108.702087,114.194374 108.640350,114.368408 108.736931,114.769730 
	C109.250908,117.143280 109.216835,119.270027 108.330124,121.677368 
	C107.522339,122.395660 107.497635,123.042244 107.216751,123.915588 
	C106.059662,126.656090 103.821304,127.635635 101.301567,128.689484 
	C100.797287,128.663818 100.622498,128.622421 100.225616,128.733582 
	C93.040115,130.564270 86.663246,128.493057 80.126831,125.567581 
	C79.586746,124.856651 79.437706,124.354378 79.542419,123.435326 
	C81.765930,121.112190 83.905746,122.540657 86.098419,122.905724 
	C91.217415,123.758003 96.443977,125.050438 101.226753,120.871857 
	C102.031509,119.798195 102.680832,119.003731 102.322006,117.609039 
	C101.874031,116.617477 101.366203,116.013931 100.646759,115.173737 
	C100.365013,114.728050 100.271385,114.536087 100.073326,114.038437 
	C99.426201,110.604446 97.345009,108.285889 95.559906,105.452103 
	C95.118134,104.853172 94.851021,104.525528 94.338348,103.994942 
	C93.476257,103.219223 92.900330,102.611023 92.332916,101.603058 
	C91.852715,100.635574 91.722221,99.817879 90.771301,99.177124 
	C90.342682,98.923668 90.167175,98.825470 89.721832,98.584778 
	C89.079796,98.252037 88.706444,98.064056 88.033478,97.742798 
	C84.599281,95.132942 81.442818,94.480453 77.967255,97.673859 
	C76.625946,98.337296 76.168579,99.256927 75.834015,100.657883 
	C75.531097,101.614464 75.265556,102.220566 75.000595,102.827301 
	C71.823952,110.101784 73.673515,113.042664 81.749023,113.657402 
	C84.519318,113.868286 87.405540,113.175972 90.285248,114.954926 
	C90.926262,116.035057 90.983871,116.852280 90.686554,118.109123 
	C86.268333,122.028900 81.317421,120.052216 76.642036,120.215126 
	C75.143433,120.267342 73.751022,119.455910 71.820724,119.154068 
	C71.110474,118.891487 70.835693,118.761513 70.247253,118.300575 
	C69.258232,114.658295 68.144135,113.318604 65.267410,116.522652 
	C63.174484,118.853714 60.608891,120.701218 57.072716,121.331100 
	C55.960022,121.391846 55.185215,121.441826 53.822716,121.392334 
	C47.135269,120.900177 44.786354,116.187561 42.238728,111.322342 
	C42.267979,110.789566 42.328945,110.598175 42.168610,110.202301 
	C39.840717,106.212532 39.399719,102.036270 39.137634,97.420044 
	C39.754143,96.433418 40.453068,96.249130 41.586456,96.458298 
	C43.839062,98.436646 43.878586,101.044487 44.647205,103.355080 
	C46.244335,108.156334 48.426758,112.497871 53.634857,114.886505 
	C54.423557,115.181870 54.808662,115.777954 55.664902,115.213806 
	C56.778282,114.182663 57.523193,113.220688 58.343262,111.905319 
	C58.791683,111.286903 59.080280,110.955338 59.618404,110.394714 
	C63.004906,106.676636 64.468201,102.362099 65.979660,97.699600 
	C66.225494,96.958885 66.366791,96.538589 66.582619,95.798813 
	C66.802864,94.844757 66.960793,94.212692 67.178650,93.263184 
	C67.480545,92.124214 67.725624,91.302742 67.746773,90.104584 
	C67.788864,88.172630 67.705719,86.598038 66.612785,84.912842 
	C65.734909,83.612755 64.738670,83.232986 63.228867,83.224075 
	C62.047066,83.196510 61.198105,83.131599 60.070465,82.861435 
	C59.294296,82.724136 59.146908,81.715073 58.171333,82.421356 
	C57.516167,82.652908 57.123230,82.708466 56.425491,82.703018 
	C55.334755,82.583252 54.548691,82.573898 53.483948,82.960236 
	C49.149734,83.910202 47.788307,86.532059 48.353909,90.729141 
	C48.508926,91.489395 48.634171,91.914886 48.940247,92.637314 
	C50.175652,95.792572 51.977692,98.368309 52.229221,101.835144 
	C51.902859,102.318481 51.698097,102.455505 51.133121,102.680695 
	C46.578571,102.922615 45.597332,99.599106 44.103622,96.370544 
	C43.789871,95.370247 43.642258,94.689331 43.101616,93.795563 
	C42.652126,93.122185 42.433720,92.712578 42.132828,91.949829 
	C41.737255,89.964302 41.474083,88.314041 41.842087,86.312637 
	C42.067276,85.602463 42.125820,85.211334 42.165443,84.522797 
	C42.691582,81.546486 40.086395,83.390266 39.295380,82.078156 
	C37.544582,81.040703 35.976711,80.291977 34.196815,79.291107 
	C33.740704,78.739052 33.462589,78.475533 32.857979,78.223953 
	C30.927120,77.056976 29.806011,75.523949 29.119869,73.327133 
	C29.201721,72.807365 29.292934,72.614540 29.140091,72.214798 
	C28.789045,70.929390 28.682060,69.850906 28.724319,68.386711 
	C29.033447,67.855995 29.193333,67.710991 29.195862,67.283028 
	C29.190699,66.153244 29.342886,65.306427 29.716881,64.219627 
	C30.265263,63.733322 30.545034,63.442726 30.780434,62.795799 
	C31.024513,60.717537 32.451080,59.656517 33.585999,58.101540 
	C34.190311,57.759312 34.475864,57.516937 34.781937,56.939735 
	C35.966934,55.474827 37.080589,54.284889 38.488605,52.999580 
	C39.721886,52.419224 40.678181,52.154743 41.961098,52.935043 
	C43.042561,56.524063 39.905834,57.859901 38.668919,60.146305 
	C37.833298,61.690926 36.808880,63.151218 35.619789,64.877296 
	C35.090092,65.665482 34.805275,66.206421 34.829292,67.155243 
	C34.986065,68.294556 35.020756,69.127625 34.739304,70.254906 
	C34.846401,70.990601 33.469402,70.816505 34.569798,71.625633 
	C36.645836,72.787315 38.446777,73.734741 40.957718,73.290802 
	C41.765175,73.187965 42.230518,73.181465 43.045593,73.246857 
	C50.954716,74.767357 57.805382,72.424751 64.563011,69.436462 
	C66.770370,68.460342 67.491188,66.985794 66.928596,64.677788 
	C66.535278,63.064209 66.192108,61.451763 65.515762,59.919601 
	C61.611797,51.075703 57.352749,50.397995 51.088516,57.664597 
	C50.109840,58.799870 49.200111,59.986568 47.392143,60.656597 
	C46.252655,60.786465 45.549896,60.588844 44.749603,59.752472 
	C43.973541,54.611820 47.578407,51.769821 49.987526,47.952354 
	C50.520531,46.968124 50.946579,46.363174 51.804100,45.639153 
	C52.820019,45.702435 53.541615,45.990097 54.630894,46.142563 
	C55.670929,45.291073 56.520641,44.695152 56.659401,43.301666 
	C57.117943,41.673672 56.673313,40.416386 56.470715,39.105110 
	C55.192757,30.833805 60.145344,24.981518 68.617958,24.471533 
	C76.098824,24.021246 82.492447,27.211447 88.887589,30.366297 
	C90.989258,31.403099 92.898354,32.830265 95.199104,34.272903 
	C95.499947,34.725067 95.497200,34.983253 95.126053,35.339386 
	C89.966499,35.498058 85.894859,32.984386 81.507637,31.636471 
	C77.454033,30.391052 73.400352,29.911737 69.271263,30.538296 
	C65.111198,31.169552 63.760712,33.372211 64.480293,38.239464 
	C64.832619,39.011162 65.015312,39.459839 65.298042,40.257572 
	C68.716408,47.268566 73.324387,52.768055 79.594040,56.884819 
	C82.306343,58.665764 84.472481,58.349693 86.640144,56.064499 
	C88.249283,54.368118 89.754097,52.633865 90.832314,50.536514 
	C93.765312,44.831203 92.030312,41.287918 85.528168,40.500603 
	C80.753296,39.922432 75.914291,40.187069 71.104240,40.427113 
	C69.790909,40.492653 68.475372,40.923988 66.899200,40.086285 
	C66.422836,39.319557 66.373802,38.803387 66.628090,37.895905 
	C73.675438,32.577148 81.343620,33.067471 89.088272,34.407822 
	C90.184311,34.597511 91.285973,35.086514 92.774521,35.460289 
	C93.406227,35.501736 93.653084,35.505520 94.256958,35.535706 
	C96.181503,36.402122 97.284889,38.534454 99.882912,37.248055 
	C111.185318,28.958641 121.477585,32.969246 124.860756,46.808159 
	C125.371361,48.896778 125.605293,51.053032 125.927383,53.583565 
	C125.330391,54.546894 124.650818,54.761112 123.527985,54.606544 
	C121.257263,53.149002 120.904694,50.928638 120.226509,48.930351 
	C119.356308,46.366306 118.012115,44.170368 116.070366,42.283756 
	C112.400070,38.717686 111.110870,38.620090 106.560181,42.042351 
	C106.245094,42.502563 106.122643,42.688057 105.809853,43.144794 
	C103.976158,45.437824 102.646667,47.660603 101.262939,50.227676 
	C100.767754,51.040100 100.436401,51.579281 100.296425,52.544861 
	C100.108788,54.684811 99.679192,56.439774 99.025879,58.492172 
	C98.803772,59.247971 98.683846,59.680767 98.518692,60.448368 
	C98.477959,63.776463 97.088089,67.118629 100.834076,69.436264 
	C101.635574,69.967361 102.159111,70.327072 103.064392,70.631668 
	C103.996307,70.843552 104.618317,70.994133 105.526947,71.320763 
	C106.261917,71.264015 106.141182,72.684967 107.089249,71.602798 
	C107.992714,71.151070 108.653923,71.093048 109.657013,71.184067 
	C111.587708,71.495689 113.237068,72.337219 114.872009,70.580750 
	C116.215065,68.694542 116.699684,66.810089 117.266663,64.600937 
	C117.201553,63.834583 118.660156,64.004784 117.555260,63.025944 
	C116.313446,60.421494 114.346748,58.468052 114.524139,55.335793 
	C115.069939,54.381706 115.666351,53.980865 116.669357,53.546906 
	C119.105118,53.132206 119.939964,54.554531 120.806541,56.425125 
	C121.016258,56.945393 121.094780,57.153297 121.285728,57.669834 
	C121.471123,58.182064 121.544090,58.385662 121.724335,58.891682 
	C122.112518,59.993740 122.424400,60.777626 123.167130,61.706230 
	C123.965111,62.955875 124.117630,64.058380 124.219299,65.510498 
	C124.246483,66.700722 124.189362,67.554642 124.014175,68.686775 
	C123.952728,69.324493 123.955910,69.676933 124.150818,70.225784 
	C124.294022,70.423439 124.681938,70.718155 124.789856,70.936531 
	C125.332733,72.330925 126.555191,72.342735 127.710487,73.018341 
	C129.133224,74.135498 130.473114,74.780167 132.091492,75.460182 
	C132.407837,75.433701 132.455292,75.526146 132.506744,75.533447 
	C132.633713,77.547279 134.576813,78.170631 135.743408,79.769852 
	C138.828232,86.744423 135.395996,91.726601 131.092316,96.773163 
	C130.712265,97.182541 130.586746,97.355057 130.222504,97.740692 
	C129.983780,97.953819 130.000748,98.001701 129.976761,97.993332 
	C129.799332,98.155159 129.645874,98.325356 129.236542,98.725121 
	C128.980682,98.954689 129.000076,99.000771 128.978088,98.988876 
	C128.422562,99.410088 127.832664,99.779457 127.172340,100.588387 
	C126.931290,100.835068 126.938530,100.945023 126.884155,100.936150 
	C126.027924,101.682388 125.076195,101.930252 123.658424,101.622215 
	C121.749382,98.997704 123.662239,97.447594 124.978294,95.894440 
	C126.711021,93.849525 128.360458,91.771736 129.525299,89.355789 
	C131.782608,84.673988 130.676758,82.264069 125.114212,80.373566 
	C124.275948,80.354187 123.794258,80.347778 122.944145,80.348167 
	C120.349403,80.325104 118.118019,80.440018 115.560463,80.031639 
	C114.642387,79.805557 114.216431,79.064407 113.204239,79.669876 
	C111.715675,80.456795 110.446281,80.878250 108.785614,81.170448 
	C107.815605,81.374680 107.161461,81.480240 106.277168,81.968033 
	C97.026283,86.273613 96.132797,89.827591 102.012451,97.919083 
	C105.211021,102.320900 106.474724,102.555374 111.780273,99.499779 
	C112.634811,98.983437 113.190292,98.629074 113.808716,97.833267 
	C116.691879,94.196594 117.107513,89.520424 120.749641,86.392685 
	C121.612129,86.217758 122.107735,86.268669 122.913742,86.631729 
	C124.571426,91.665291 121.922821,95.520538 119.890518,99.855957 
	C119.349945,100.466484 119.042885,100.808289 118.560226,101.432220 
	C118.159790,102.091431 117.943336,102.475334 117.563934,103.148880 
	C116.337227,104.877007 115.048355,106.092285 113.397415,107.406822 
	C112.204369,108.166214 111.233719,108.666321 110.210670,109.658295 
	C109.806145,109.913795 109.643639,109.952354 109.231216,109.973389 
	C108.610733,110.045609 108.459229,110.278244 108.675568,110.831711 
z"/>
<path fill="#BDDAE3" opacity="1.000000" stroke="none" 
	d="
M122.706940,54.302902 
	C123.722832,54.004082 124.444542,54.010483 125.526901,54.003002 
	C127.002205,58.929230 126.817162,63.858795 125.384232,68.891518 
	C124.044540,68.343742 124.069107,67.235046 123.648209,65.909706 
	C123.582619,63.691078 123.576202,61.856457 122.220909,59.914139 
	C121.780159,57.857399 121.521240,56.196590 122.706940,54.302902 
z"/>
<path fill="#BEDFE5" opacity="1.000000" stroke="none" 
	d="
M51.858894,45.184090 
	C52.033157,46.076954 51.967884,46.739136 51.731949,47.689461 
	C48.459393,49.821674 46.273163,52.937767 42.447144,54.237289 
	C41.544441,53.148281 40.577713,52.984943 39.160912,52.937885 
	C42.557606,49.439987 46.881298,46.862194 51.858894,45.184090 
z"/>
<path fill="#C2E4EB" opacity="1.000000" stroke="none" 
	d="
M122.088745,100.644592 
	C123.585686,100.812958 124.764191,100.886993 126.386230,100.944153 
	C123.985085,104.021584 120.230766,105.784683 116.347183,107.934036 
	C115.674744,107.684937 115.482651,107.288544 115.443848,106.493141 
	C115.770683,105.265167 116.448845,104.659904 117.299271,103.773026 
	C118.748329,102.261589 119.824417,100.789040 122.088745,100.644592 
z"/>
<path fill="#C1E4EC" opacity="1.000000" stroke="none" 
	d="
M42.215996,96.711334 
	C41.226681,97.006424 40.545933,97.005074 39.524818,97.007401 
	C39.207859,93.793091 39.231270,90.575096 39.622711,87.136688 
	C42.984386,87.356270 41.478611,89.974846 42.340134,91.909630 
	C42.898911,93.673111 43.348541,95.034927 42.215996,96.711334 
z"/>
<path fill="#C0E5EC" opacity="1.000000" stroke="none" 
	d="
M80.031525,122.144638 
	C80.083908,123.113739 80.021004,123.743484 79.915329,124.845978 
	C77.215714,124.861488 75.312469,122.982964 72.876190,121.439560 
	C72.797386,120.685257 73.051231,120.287865 73.734688,119.793182 
	C76.148033,119.980766 78.395554,119.914505 80.031525,122.144638 
z"/>
<path fill="#ACC1C5" opacity="1.000000" stroke="none" 
	d="
M115.677422,105.938492 
	C116.015450,106.519722 116.001060,106.945724 115.996559,107.691284 
	C114.474152,109.306274 112.777084,110.177856 110.334641,109.974388 
	C110.062485,108.563171 109.881905,107.073517 112.179611,106.992989 
	C113.497635,106.712936 114.333405,106.069923 115.677422,105.938492 
z"/>
<path fill="#3B4F56" opacity="1.000000" stroke="none" 
	d="
M99.892197,37.032749 
	C97.967148,41.320133 96.404816,38.955124 94.914230,36.278427 
	C95.491890,35.611275 96.037880,35.511139 97.011887,35.834602 
	C98.384964,35.694897 98.964203,36.374664 99.892197,37.032749 
z"/>
<path fill="#233B3F" opacity="1.000000" stroke="none" 
	d="
M41.802723,92.307854 
	C41.154621,90.500191 40.880848,88.886345 40.298912,87.094383 
	C40.474174,86.640335 40.957603,86.364395 41.724884,86.041031 
	C42.311325,87.746483 42.613918,89.499367 42.894215,91.638260 
	C42.640293,92.183395 42.408672,92.342529 41.802723,92.307854 
z"/>
<path fill="#C1E4EC" opacity="1.000000" stroke="none" 
	d="
M73.893539,119.798607 
	C73.729637,120.405968 73.461929,120.670914 72.931572,121.048073 
	C71.189949,120.258484 69.710976,119.356689 67.857391,118.373413 
	C67.800964,117.595970 68.310814,117.391586 69.475815,117.831467 
	C69.933609,117.969620 70.281822,117.927063 70.457047,117.934937 
	C71.581856,118.661949 73.011818,118.378876 73.893539,119.798607 
z"/>
<path fill="#C2E4EB" opacity="1.000000" stroke="none" 
	d="
M135.974274,79.671753 
	C133.825180,79.647865 132.332504,78.654968 132.423981,75.891953 
	C134.178162,76.375381 135.091202,77.846542 135.974274,79.671753 
z"/>
<path fill="#233B3F" opacity="1.000000" stroke="none" 
	d="
M39.095291,82.133362 
	C40.141979,82.726181 42.888882,80.508781 42.410767,83.977287 
	C41.245975,83.428116 38.309677,86.204132 39.095291,82.133362 
z"/>
<path fill="#45555F" opacity="1.000000" stroke="none" 
	d="
M124.064140,65.713371 
	C124.560013,66.738159 124.759529,67.550255 124.979950,68.682014 
	C124.970352,69.479698 124.939850,69.957710 124.903564,70.795319 
	C124.651436,71.174507 124.405098,71.194115 123.876564,71.454071 
	C123.352249,71.368004 123.154747,71.016846 122.942276,70.340950 
	C122.923409,68.949890 122.970917,67.855103 123.109077,66.359390 
	C123.389084,65.805878 123.578430,65.653275 124.064140,65.713371 
z"/>
<path fill="#435A61" opacity="1.000000" stroke="none" 
	d="
M56.353901,43.021370 
	C57.588371,43.168629 58.159012,43.730507 57.991020,44.621246 
	C57.771729,45.784012 56.650280,45.790146 55.373772,46.013573 
	C55.148571,44.951767 54.755203,43.708828 56.353901,43.021370 
z"/>
<path fill="#C2E4EB" opacity="1.000000" stroke="none" 
	d="
M132.199677,75.196465 
	C130.524994,76.148918 129.175156,75.420120 128.062149,73.512344 
	C129.632965,73.075760 130.761200,74.131538 132.199677,75.196465 
z"/>
<path fill="#C0E5EC" opacity="1.000000" stroke="none" 
	d="
M108.894043,110.750748 
	C108.047928,110.849228 107.138878,110.765419 107.493805,109.615158 
	C107.540146,109.464973 108.270439,109.525826 108.832619,109.722397 
	C108.975441,110.134506 108.969597,110.313164 108.894043,110.750748 
z"/>
<path fill="#C2E4EB" opacity="1.000000" stroke="none" 
	d="
M127.205109,100.749863 
	C127.050728,99.962494 127.415428,99.283989 128.649567,99.013962 
	C128.463699,99.539543 127.971313,100.102104 127.205109,100.749863 
z"/>
<path fill="#C1E4EC" opacity="1.000000" stroke="none" 
	d="
M53.541405,121.610611 
	C54.014450,121.289200 54.789074,121.211205 56.146866,121.200356 
	C55.907806,122.152718 54.876751,122.010040 53.541405,121.610611 
z"/>
<path fill="#C0E5EC" opacity="1.000000" stroke="none" 
	d="
M107.359634,124.022476 
	C107.238579,123.584740 107.394073,122.972534 107.816742,122.174332 
	C107.934669,122.608223 107.785431,123.228104 107.359634,124.022476 
z"/>
<path fill="#C6EEF7" opacity="1.000000" stroke="none" 
	d="
M97.260132,35.740021 
	C96.860023,36.039745 96.322548,36.052322 95.386734,36.003841 
	C94.988388,35.942780 95.028160,35.986099 95.053299,36.001350 
	C95.078445,36.016602 94.768463,35.727654 94.733376,35.518692 
	C94.831955,35.168892 94.965622,35.028053 95.300987,34.677048 
	C96.042725,34.795547 96.582748,35.124210 97.260132,35.740021 
z"/>
<path fill="#C0E5EC" opacity="1.000000" stroke="none" 
	d="
M100.260498,128.920288 
	C100.252388,128.741730 100.501251,128.597305 100.861092,128.579041 
	C100.820541,128.788269 100.669006,128.871353 100.260498,128.920288 
z"/>
<path fill="#C1E4EC" opacity="1.000000" stroke="none" 
	d="
M41.927307,110.266037 
	C42.124382,110.245300 42.301460,110.492775 42.342773,110.860611 
	C42.107109,110.832062 42.007210,110.683167 41.927307,110.266037 
z"/>
<path fill="#C0E5EC" opacity="1.000000" stroke="none" 
	d="
M108.940323,114.742363 
	C108.762169,114.741821 108.629089,114.486633 108.629913,114.125893 
	C108.837677,114.176132 108.911537,114.331924 108.940323,114.742363 
z"/>
<path fill="#C1E4EC" opacity="1.000000" stroke="none" 
	d="
M67.572205,118.260956 
	C67.465378,117.883415 67.058380,117.446396 67.799461,117.293762 
	C67.853821,117.282578 68.009247,117.762108 67.800232,118.152710 
	C67.482780,118.291924 67.541664,118.269035 67.572205,118.260956 
z"/>
<path fill="#BEDFE5" opacity="1.000000" stroke="none" 
	d="
M34.585358,56.782944 
	C34.692184,57.003429 34.531086,57.342091 34.112022,57.811363 
	C34.008518,57.595020 34.162975,57.248070 34.585358,56.782944 
z"/>
<path fill="#BAD7DF" opacity="1.000000" stroke="none" 
	d="
M28.863363,72.274612 
	C29.062824,72.261131 29.229616,72.514374 29.253460,72.883911 
	C29.017239,72.847237 28.923965,72.694283 28.863363,72.274612 
z"/>
<path fill="#BAD7DF" opacity="1.000000" stroke="none" 
	d="
M32.719673,78.452866 
	C32.933136,78.311890 33.295448,78.429955 33.821281,78.793495 
	C33.612705,78.929955 33.240612,78.820938 32.719673,78.452866 
z"/>
<path fill="#BEDFE5" opacity="1.000000" stroke="none" 
	d="
M28.906719,67.235382 
	C29.182949,67.191986 29.346283,67.373947 29.456881,67.583710 
	C29.480770,67.629021 29.314777,67.774437 29.054905,67.937378 
	C28.840687,67.824234 28.807808,67.647461 28.906719,67.235382 
z"/>
<path fill="#C2E4EB" opacity="1.000000" stroke="none" 
	d="
M129.225388,98.894089 
	C129.069702,98.634628 129.249252,98.377884 129.736053,98.084717 
	C129.791885,98.267815 129.630997,98.550659 129.225388,98.894089 
z"/>
<path fill="#C2E4EB" opacity="1.000000" stroke="none" 
	d="
M130.218430,97.892578 
	C130.050308,97.652962 130.204300,97.406830 130.641785,97.112732 
	C130.917664,97.381287 130.789429,97.655052 130.218430,97.892578 
z"/>
<path fill="#BEDFE5" opacity="1.000000" stroke="none" 
	d="
M30.522509,62.651756 
	C30.673235,62.869823 30.555740,63.248470 30.188465,63.803391 
	C30.043884,63.590553 30.149086,63.201447 30.522509,62.651756 
z"/>
<path fill="#FAFBFC" opacity="1.000000" stroke="none" 
	d="
M222.997803,63.211266 
	C227.101089,73.196548 227.195511,82.964378 223.874649,92.732018 
	C221.942566,98.414856 216.719696,102.109268 211.562363,101.962349 
	C206.345810,101.813744 201.876541,98.406792 199.813736,92.735405 
	C196.511887,83.657471 196.786102,74.472275 199.701263,65.397446 
	C201.457504,59.930344 204.658142,55.430492 210.931213,54.776905 
	C216.967590,54.147980 220.282516,58.101849 222.997803,63.211266 
z"/>
<path fill="#F6F6F7" opacity="1.000000" stroke="none" 
	d="
M380.781250,76.274239 
	C384.007507,82.800308 387.076843,88.986443 390.361115,95.605759 
	C381.655182,95.605759 373.583618,95.605759 365.299713,95.605759 
	C367.406036,85.724266 375.766876,92.403091 380.806366,89.417274 
	C377.830719,83.363716 374.740265,77.076637 371.265900,70.008560 
	C366.117188,80.294655 361.271118,89.869392 356.536469,99.498909 
	C355.084503,102.451935 357.787323,101.476944 358.844421,101.485992 
	C368.666534,101.570061 378.500000,101.803810 388.307678,101.419830 
	C392.650085,101.249825 394.762115,102.779060 395.625824,106.963043 
	C379.458527,106.963043 363.363312,106.963043 346.437958,106.963043 
	C354.703247,90.400261 362.792236,74.190727 371.218231,57.305901 
	C374.590698,63.984924 377.607544,69.959618 380.781250,76.274239 
z"/>
<path fill="#131718" opacity="1.000000" stroke="none" 
	d="
M52.494164,102.172264 
	C51.093327,99.103485 49.634762,96.373314 48.027626,93.317062 
	C47.597633,92.637093 47.362461,92.254410 47.302223,91.536781 
	C46.843983,86.561790 47.176300,82.485458 53.634567,81.968620 
	C54.411930,81.624657 54.851620,81.524147 55.651840,81.653854 
	C56.434322,81.798988 56.886852,81.838593 57.675941,81.817398 
	C58.179974,81.713242 58.347446,81.669891 58.754257,81.726791 
	C59.865379,82.011070 60.737160,82.195114 61.941185,82.336044 
	C63.771500,82.320992 65.183647,82.645615 66.721634,83.742157 
	C69.351753,84.929031 68.912163,86.774246 68.596085,88.945648 
	C68.795387,90.311089 68.360115,91.297623 68.241081,92.661728 
	C67.867653,93.550163 67.688873,94.104988 67.552673,94.949944 
	C67.816490,95.655807 67.805954,96.058037 67.339401,96.718124 
	C65.525131,101.877625 64.798126,107.178078 60.384171,110.923660 
	C56.210835,109.270828 54.530979,105.703186 52.494164,102.172264 
z"/>
<path fill="#121617" opacity="1.000000" stroke="none" 
	d="
M99.949142,50.304535 
	C101.590233,47.790798 102.933266,45.495335 104.611359,43.185921 
	C109.825050,45.521126 112.998230,49.382236 114.822937,54.730564 
	C115.778214,57.495045 116.796204,59.912182 117.951447,62.665169 
	C118.182381,63.156334 118.276062,63.311642 118.294724,63.728462 
	C118.066399,66.259079 118.299072,68.634857 116.226669,70.736862 
	C114.519363,72.440140 112.697563,72.623184 110.397842,72.329308 
	C109.258659,72.175873 108.501442,72.142609 107.367905,72.161583 
	C106.821381,72.266830 106.651169,72.319855 106.242073,72.252670 
	C105.398033,71.994270 104.792877,71.856071 103.879761,71.766876 
	C102.872116,71.791008 102.234344,71.478127 101.285240,71.158157 
	C95.191360,69.501083 97.006279,65.322807 97.606628,61.164196 
	C97.313499,60.511898 97.219765,60.248100 97.276451,59.973999 
	C97.334206,59.694729 97.400253,59.555096 97.687653,59.281303 
	C98.338638,57.135204 98.776581,55.262905 99.234985,53.035057 
	C99.165710,51.919956 99.520943,51.242027 99.949142,50.304535 
z"/>
<path fill="#131618" opacity="1.000000" stroke="none" 
	d="
M113.736443,78.758591 
	C116.726753,78.859360 119.456909,78.828979 122.637344,78.884636 
	C124.738472,81.907204 122.969284,84.111435 121.229492,86.680298 
	C118.969048,90.606758 116.980232,94.233025 114.907387,98.181030 
	C114.716339,99.237091 114.166893,99.445450 113.361984,99.813911 
	C106.721207,104.720100 104.905800,104.422516 100.489044,97.966461 
	C100.210953,97.559990 99.955009,97.136803 99.711479,96.708466 
	C94.767509,88.012543 95.843575,85.095894 105.691635,81.144882 
	C106.518105,80.499474 107.213326,80.529015 108.129501,80.226845 
	C109.759377,79.854012 111.069916,79.546082 112.690475,79.100983 
	C113.159103,78.851677 113.317703,78.739555 113.736443,78.758591 
z"/>
<path fill="#121618" opacity="1.000000" stroke="none" 
	d="
M77.023361,97.251328 
	C80.824234,92.970451 84.405838,92.607826 88.390160,97.022369 
	C89.057114,97.221832 89.364525,97.403755 89.795944,97.869080 
	C89.957527,98.087280 89.990746,98.010468 89.955994,98.033783 
	C91.039139,98.662102 92.153954,99.270401 92.789810,100.840393 
	C93.416702,101.688560 93.877182,102.268448 94.602455,102.949402 
	C95.169487,103.242134 95.437927,103.473083 95.792213,103.982056 
	C97.608810,107.110069 100.694832,109.176903 100.924942,113.201752 
	C97.921204,116.255768 94.394936,116.239197 90.377831,115.636589 
	C86.164459,115.207764 82.297356,115.776482 78.546570,114.780251 
	C71.516968,112.913139 70.194923,110.177643 73.121811,103.698700 
	C73.597664,102.645370 74.220772,101.658562 74.880264,100.300529 
	C75.766861,99.232735 75.909370,98.072838 77.023361,97.251328 
z"/>
<path fill="#131719" opacity="1.000000" stroke="none" 
	d="
M46.996033,60.381630 
	C50.060986,57.975895 51.261330,54.418873 54.281349,52.471592 
	C57.468563,50.416508 60.427086,49.908638 62.967766,53.447132 
	C63.936958,54.796967 65.085022,56.041698 65.894379,57.479137 
	C70.740280,66.085571 69.482742,69.555550 60.300362,72.536125 
	C54.618542,74.380440 48.902817,76.361725 42.474186,74.465866 
	C41.833382,68.968323 44.289383,64.791245 46.996033,60.381630 
z"/>
<path fill="#121718" opacity="1.000000" stroke="none" 
	d="
M66.696541,39.764931 
	C72.785942,38.878426 78.571716,38.216923 84.414703,38.801117 
	C93.752556,39.734726 96.068398,44.114887 91.517517,52.089367 
	C91.435890,52.232410 91.296944,52.342194 91.211365,52.483608 
	C85.894333,61.269878 82.228409,61.893806 74.942726,54.935047 
	C70.861794,51.037235 66.686638,47.146019 64.223450,41.511372 
	C64.629578,40.327534 65.307404,39.714661 66.696541,39.764931 
z"/>
<path fill="#1B2428" opacity="1.000000" stroke="none" 
	d="
M74.332092,120.170624 
	C73.020607,119.582497 72.043869,119.023979 70.849701,118.204132 
	C76.858162,119.043724 83.092148,119.968872 89.781464,118.585785 
	C92.910339,115.510674 96.691833,115.482529 100.614426,114.778061 
	C102.034325,114.862228 102.732582,115.323448 103.072815,116.699791 
	C103.526733,117.744308 103.487297,118.510048 103.300308,119.631546 
	C101.711685,123.805550 98.524292,124.743118 94.909454,124.980621 
	C90.068230,125.298706 85.463737,124.188637 80.536179,122.578781 
	C78.320168,121.722748 76.493507,120.961494 74.332092,120.170624 
z"/>
<path fill="#192124" opacity="1.000000" stroke="none" 
	d="
M94.335159,35.239296 
	C94.698288,35.309731 94.684067,35.773048 94.881256,35.894825 
	C87.940628,35.656445 80.828072,33.308624 73.652557,35.802784 
	C71.682953,36.487404 69.662849,37.026764 67.343491,37.843376 
	C66.312454,38.659195 65.648270,39.343418 64.295013,39.293633 
	C60.879269,34.274776 62.874516,30.213652 68.907455,29.183193 
	C76.285614,27.922960 82.855156,30.786924 89.485474,33.293098 
	C91.000832,33.865883 92.477539,34.540897 94.335159,35.239296 
z"/>
<path fill="#171F22" opacity="1.000000" stroke="none" 
	d="
M41.933853,54.489746 
	C45.168629,52.296680 47.152195,48.905792 51.180405,47.874481 
	C49.145824,51.187466 46.232136,54.088036 45.052483,58.485249 
	C44.386089,63.826988 42.409615,68.507027 41.118973,73.687103 
	C38.208900,75.631248 36.288582,73.902542 34.114174,72.310257 
	C33.844215,71.845078 33.737328,71.689896 33.726204,71.268784 
	C33.775093,69.931351 33.728226,68.859840 33.684475,67.383881 
	C33.561646,66.513382 33.540096,66.041512 33.846588,65.296646 
	C36.312336,61.359489 38.508228,57.666321 41.933853,54.489746 
z"/>
<path fill="#182023" opacity="1.000000" stroke="none" 
	d="
M41.403374,92.526520 
	C41.669186,92.102402 41.909977,92.090759 42.511341,92.051689 
	C43.020969,92.276703 43.126198,92.546249 43.323990,93.002686 
	C44.449356,93.296219 44.464565,94.149582 44.748089,95.213287 
	C45.588116,98.490784 47.766418,100.526260 49.658157,103.086426 
	C50.909206,101.853836 51.570583,102.892876 52.150730,103.589920 
	C54.332748,106.211609 56.827217,108.556725 59.030834,111.609413 
	C59.741207,114.212494 57.644794,114.588684 56.273731,115.884552 
	C55.842590,116.190872 55.688633,116.279816 55.274323,116.310921 
	C49.711472,116.351318 47.802353,112.264801 45.652737,108.563469 
	C43.713764,105.224831 43.119961,101.420227 42.060081,97.370300 
	C41.731068,95.651520 41.554710,94.295265 41.403374,92.526520 
z"/>
<path fill="#161D20" opacity="1.000000" stroke="none" 
	d="
M122.598572,100.447739 
	C121.160736,101.770714 119.914276,102.802513 118.384377,103.955261 
	C117.504341,104.253853 117.036118,104.081909 116.755096,103.150993 
	C116.854378,102.451889 116.950607,102.182137 117.139198,101.719452 
	C117.191612,101.083389 117.335762,100.712669 117.881714,100.226509 
	C121.125107,96.528091 122.018700,92.080864 123.576927,87.509140 
	C122.010902,84.386177 123.883209,82.069641 124.833008,79.326218 
	C131.764359,80.489197 133.579391,84.090897 130.588303,90.025703 
	C128.638962,93.893562 125.994934,97.245674 122.598572,100.447739 
z"/>
<path fill="#111A1C" opacity="1.000000" stroke="none" 
	d="
M122.839661,53.660522 
	C123.277481,55.708607 123.553848,57.419529 123.840347,59.566498 
	C123.653397,60.150574 123.456314,60.298595 122.889526,60.468204 
	C122.028229,60.345947 121.659027,60.054314 121.221695,59.286499 
	C121.010307,58.983299 120.998436,58.998150 121.006546,58.995903 
	C120.711716,58.719654 120.450920,58.410149 120.210022,57.760963 
	C119.873810,55.931000 119.147911,54.688274 117.440811,53.817238 
	C112.593117,50.587090 109.539505,45.923294 105.282959,42.028748 
	C111.621452,34.624008 114.828934,37.807255 119.388588,44.646816 
	C121.060829,47.155201 121.614357,50.409378 122.839661,53.660522 
z"/>
<path fill="#151D20" opacity="1.000000" stroke="none" 
	d="
M87.873657,76.960182 
	C88.299461,81.292961 85.056145,82.507652 82.638710,82.320190 
	C80.291351,82.138168 77.538467,80.781433 77.616997,76.824211 
	C77.684151,73.440353 79.805557,71.865257 81.893715,71.761826 
	C84.557999,71.629845 87.938614,72.411743 87.873657,76.960182 
z"/>
<path fill="#B9D3D7" opacity="1.000000" stroke="none" 
	d="
M41.051151,73.982033 
	C40.605267,68.732002 42.438553,63.998798 44.600761,59.036835 
	C45.453674,59.215702 46.033001,59.636539 46.979660,60.119781 
	C45.794048,64.597664 44.241100,69.013145 42.440834,73.751541 
	C41.887806,74.064026 41.582916,74.042236 41.051151,73.982033 
z"/>
<path fill="#C2E4EB" opacity="1.000000" stroke="none" 
	d="
M105.079376,42.087318 
	C110.137993,44.437679 113.352669,49.067413 117.159760,53.381374 
	C116.579262,54.139687 116.026192,54.552731 115.116669,55.021843 
	C111.899734,51.036865 109.000687,47.028427 105.075249,43.475548 
	C104.975548,42.930893 105.004692,42.689804 105.079376,42.087318 
z"/>
<path fill="#C1E4EC" opacity="1.000000" stroke="none" 
	d="
M59.358437,111.836777 
	C55.427299,110.037338 52.997322,106.685181 50.039185,103.534081 
	C50.354248,102.965126 50.761105,102.678810 51.859928,102.113083 
	C54.966896,104.649231 57.381893,107.464798 59.913811,110.590958 
	C59.961784,111.223114 59.806610,111.495552 59.358437,111.836777 
z"/>
<path fill="#C1E4EC" opacity="1.000000" stroke="none" 
	d="
M100.975128,114.484604 
	C97.862251,116.592026 94.437973,117.570961 90.531815,118.325020 
	C90.088768,117.630226 90.036842,116.897469 89.979630,115.797379 
	C93.310921,114.837280 96.647476,114.244507 100.400436,113.592316 
	C100.858826,113.743362 100.900810,113.953835 100.975128,114.484604 
z"/>
<path fill="#C0E5EC" opacity="1.000000" stroke="none" 
	d="
M124.772156,79.027313 
	C124.729538,81.520149 124.350151,83.996918 123.812210,86.799454 
	C123.054878,87.086945 122.456100,87.048668 121.407593,86.995438 
	C121.653648,84.563965 122.349442,82.147438 123.066422,79.350800 
	C123.536865,78.984207 123.986130,78.997726 124.772156,79.027313 
z"/>
<path fill="#30484E" opacity="1.000000" stroke="none" 
	d="
M116.517189,102.899673 
	C117.054634,103.087570 117.295319,103.433578 117.818466,103.927902 
	C117.550110,104.611526 116.999283,105.146835 116.239143,105.887924 
	C115.102409,106.460541 114.174988,106.827370 112.879814,107.103790 
	C113.748184,105.694855 114.984306,104.376320 116.517189,102.899673 
z"/>
<path fill="#243644" opacity="1.000000" stroke="none" 
	d="
M121.837433,60.291008 
	C122.379570,59.985935 122.673737,59.990398 123.409195,59.998703 
	C124.034630,61.724934 124.218781,63.447323 124.381714,65.547890 
	C124.166771,65.922089 123.973045,65.918106 123.489532,65.936310 
	C122.997261,64.807426 122.794792,63.656368 122.380943,62.226303 
	C121.680511,61.625736 121.487068,61.176849 121.837433,60.291008 
z"/>
<path fill="#C2E4EB" opacity="1.000000" stroke="none" 
	d="
M110.300003,72.440399 
	C111.761871,71.846695 113.507874,71.484253 115.634003,71.081612 
	C114.996857,74.225227 112.598198,72.807953 110.300003,72.440399 
z"/>
<path fill="#AAC4C6" opacity="1.000000" stroke="none" 
	d="
M63.964130,39.525482 
	C64.757629,38.804581 65.555428,38.420086 66.687134,38.044777 
	C67.007195,38.461521 66.993347,38.869072 67.005615,39.581577 
	C66.262611,40.248169 65.493484,40.609802 64.426239,41.082897 
	C64.074890,40.750202 64.021660,40.306049 63.964130,39.525482 
z"/>
<path fill="#C1E4EC" opacity="1.000000" stroke="none" 
	d="
M92.960938,100.726326 
	C92.019249,100.287445 91.082275,99.466225 90.033279,98.351051 
	C91.601822,97.933083 93.024872,98.151901 92.960938,100.726326 
z"/>
<path fill="#C1E4EC" opacity="1.000000" stroke="none" 
	d="
M66.906082,83.591690 
	C65.607841,83.586395 64.214500,83.189209 62.547295,82.542480 
	C63.865334,82.198006 65.617966,81.298851 66.906082,83.591690 
z"/>
<path fill="#C1E4EC" opacity="1.000000" stroke="none" 
	d="
M76.947769,97.132156 
	C76.724495,97.981239 76.135849,98.833794 75.265945,99.823196 
	C75.052483,98.755661 74.881088,97.415970 76.947769,97.132156 
z"/>
<path fill="#C2E4EB" opacity="1.000000" stroke="none" 
	d="
M122.672829,70.186050 
	C123.167686,70.361763 123.459465,70.678841 123.672813,71.345177 
	C122.272217,72.018066 121.918907,71.544655 122.672829,70.186050 
z"/>
<path fill="#C0E5EC" opacity="1.000000" stroke="none" 
	d="
M103.375183,119.793304 
	C103.143295,119.244003 103.130203,118.501106 103.158768,117.388138 
	C104.076767,117.765015 104.163330,118.632362 103.375183,119.793304 
z"/>
<path fill="#C2E4EB" opacity="1.000000" stroke="none" 
	d="
M121.917053,59.800972 
	C122.125641,60.417519 122.165871,60.853565 122.187836,61.618446 
	C121.148750,61.517021 121.019226,60.623737 121.000504,59.330647 
	C121.323067,59.118481 121.569199,59.330868 121.917053,59.800972 
z"/>
<path fill="#C1E4EC" opacity="1.000000" stroke="none" 
	d="
M68.320572,92.709793 
	C68.103271,91.963020 68.160126,90.930717 68.457611,89.588562 
	C68.663734,90.327240 68.629227,91.375748 68.320572,92.709793 
z"/>
<path fill="#C0E5EC" opacity="1.000000" stroke="none" 
	d="
M108.104973,80.122665 
	C107.858673,80.446999 107.268501,80.732056 106.340637,80.987656 
	C106.588989,80.666595 107.175049,80.374992 108.104973,80.122665 
z"/>
<path fill="#C1E4EC" opacity="1.000000" stroke="none" 
	d="
M44.817966,95.196999 
	C44.399521,95.016991 44.008163,94.441376 43.538597,93.519112 
	C44.328350,93.369972 44.782768,93.919014 44.817966,95.196999 
z"/>
<path fill="#C2E4EB" opacity="1.000000" stroke="none" 
	d="
M101.244713,71.219612 
	C101.703041,71.063065 102.385750,71.191071 103.320129,71.567474 
	C102.870895,71.711967 102.169991,71.608070 101.244713,71.219612 
z"/>
<path fill="#C1E4EC" opacity="1.000000" stroke="none" 
	d="
M55.817589,81.573898 
	C55.544250,81.835991 55.106705,81.912590 54.338528,81.929871 
	C54.417591,81.236145 54.923897,80.931442 55.817589,81.573898 
z"/>
<path fill="#C2E4EB" opacity="1.000000" stroke="none" 
	d="
M99.923630,50.287457 
	C100.092316,50.785286 99.937447,51.484310 99.519012,52.431423 
	C99.370323,51.949223 99.485191,51.218937 99.923630,50.287457 
z"/>
<path fill="#BEDFE5" opacity="1.000000" stroke="none" 
	d="
M33.854561,65.139297 
	C34.042507,65.473366 34.000477,65.918053 33.823021,66.671082 
	C33.122154,66.422752 33.014782,65.849388 33.854561,65.139297 
z"/>
<path fill="#C0E5EC" opacity="1.000000" stroke="none" 
	d="
M113.485596,99.993729 
	C113.543068,99.611954 113.912285,99.169853 114.552429,98.615265 
	C114.481354,98.979645 114.139351,99.456528 113.485596,99.993729 
z"/>
<path fill="#C2E4EB" opacity="1.000000" stroke="none" 
	d="
M106.088882,72.281982 
	C106.171715,72.099800 106.340248,72.067131 106.750183,72.124138 
	C106.719261,72.286369 106.446922,72.358925 106.088882,72.281982 
z"/>
<path fill="#C1E4EC" opacity="1.000000" stroke="none" 
	d="
M55.124367,116.384674 
	C55.172218,116.192131 55.330479,116.131172 55.742645,116.086067 
	C55.742626,116.240036 55.488701,116.378143 55.124367,116.384674 
z"/>
<path fill="#BEDFE5" opacity="1.000000" stroke="none" 
	d="
M33.680351,71.110016 
	C33.909149,71.160583 33.996338,71.318314 34.017315,71.738159 
	C33.813648,71.739235 33.676197,71.478203 33.680351,71.110016 
z"/>
<path fill="#C0E5EC" opacity="1.000000" stroke="none" 
	d="
M113.895691,78.741280 
	C113.834122,78.949745 113.671661,79.009758 113.254852,79.016785 
	C113.265266,78.840141 113.530029,78.716476 113.895691,78.741280 
z"/>
<path fill="#C1E4EC" opacity="1.000000" stroke="none" 
	d="
M95.826920,103.956886 
	C95.617889,104.009636 95.323944,103.798431 94.948624,103.318855 
	C95.158836,103.264626 95.450424,103.478783 95.826920,103.956886 
z"/>
<path fill="#C2E4EB" opacity="1.000000" stroke="none" 
	d="
M118.354752,63.881683 
	C118.148079,63.831757 118.076439,63.673538 118.046753,63.258167 
	C118.222389,63.258476 118.356087,63.515934 118.354752,63.881683 
z"/>
<path fill="#C2E4EB" opacity="1.000000" stroke="none" 
	d="
M120.208092,57.766014 
	C120.451660,57.760979 120.715378,58.065273 120.996872,58.681610 
	C120.752518,58.687546 120.490387,58.381443 120.208092,57.766014 
z"/>
<path fill="#C0E5EC" opacity="1.000000" stroke="none" 
	d="
M117.867538,100.209000 
	C117.990562,100.426712 117.845352,100.802834 117.437958,101.342781 
	C117.316940,101.126877 117.458115,100.747147 117.867538,100.209000 
z"/>
<path fill="#C1E4EC" opacity="1.000000" stroke="none" 
	d="
M89.831009,97.834320 
	C89.625473,97.930603 89.293427,97.773918 88.833633,97.366592 
	C89.038757,97.271095 89.371628,97.426231 89.831009,97.834320 
z"/>
<path fill="#C1E4EC" opacity="1.000000" stroke="none" 
	d="
M67.367882,96.748802 
	C67.165993,96.572441 67.178238,96.153152 67.392860,95.486969 
	C67.590828,95.662003 67.586418,96.083939 67.367882,96.748802 
z"/>
<path fill="#C2E4EB" opacity="1.000000" stroke="none" 
	d="
M97.682449,59.253418 
	C97.897888,59.418041 97.895073,59.828575 97.724960,60.502251 
	C97.526512,60.343369 97.495346,59.921352 97.682449,59.253418 
z"/>
<path fill="#C1E4EC" opacity="1.000000" stroke="none" 
	d="
M47.357189,91.546898 
	C47.610859,91.603264 47.784439,91.979897 47.918533,92.673752 
	C47.678398,92.616379 47.477749,92.241768 47.357189,91.546898 
z"/>
<path fill="#C1E4EC" opacity="1.000000" stroke="none" 
	d="
M58.906178,81.681816 
	C58.826702,81.862480 58.659801,81.897942 58.252701,81.844994 
	C58.281250,81.683266 58.550003,81.609940 58.906178,81.681816 
z"/>
</svg>